<?xml version="1.0" standalone="no"?>
<!DOCTYPE svg PUBLIC "-//W3C//DTD SVG 20010904//EN"
 "http://www.w3.org/TR/2001/REC-SVG-20010904/DTD/svg10.dtd">
<svg version="1.0" xmlns="http://www.w3.org/2000/svg"
 width="389.000000pt" height="389.000000pt" viewBox="0 0 389.000000 389.000000"
 preserveAspectRatio="xMidYMid meet">
<metadata>
Created by potrace 1.14, written by Peter Selinger 2001-2017
</metadata>
<g transform="translate(0.000000,389.000000) scale(0.100000,-0.100000)"
fill="#000000" stroke="none">
<path d="M1828 3715 c-13 -13 -150 -25 -169 -14 -14 7 -25 6 -41 -6 -13 -8
-43 -15 -71 -15 -26 0 -62 -7 -79 -16 -17 -9 -42 -13 -57 -11 -28 6 -149 -31
-203 -62 -18 -10 -49 -22 -69 -25 -21 -4 -48 -15 -62 -26 -14 -11 -32 -20 -40
-20 -7 0 -22 -9 -32 -20 -10 -11 -29 -20 -42 -20 -13 0 -34 -11 -47 -25 -13
-14 -29 -25 -35 -25 -14 0 -73 -40 -84 -57 -4 -7 -13 -13 -20 -13 -12 0 -25
-11 -113 -99 -22 -23 -45 -41 -51 -41 -5 0 -34 -30 -64 -67 -30 -37 -69 -83
-86 -104 -18 -20 -33 -40 -33 -44 0 -4 -14 -23 -30 -42 -17 -18 -30 -43 -30
-54 0 -11 -7 -22 -15 -25 -8 -3 -21 -18 -28 -32 -7 -15 -19 -36 -25 -47 -7
-11 -16 -31 -22 -45 -5 -14 -16 -34 -22 -45 -43 -66 -58 -97 -52 -106 3 -5 1
-15 -4 -22 -18 -22 -52 -133 -52 -168 0 -19 -7 -44 -15 -56 -9 -12 -17 -50
-20 -85 -2 -35 -10 -83 -17 -108 -16 -54 -15 -365 2 -385 6 -7 8 -20 4 -29 -3
-9 -1 -22 5 -30 7 -8 13 -51 15 -96 2 -45 9 -87 15 -93 6 -6 11 -18 11 -26 0
-9 7 -29 15 -45 8 -15 15 -35 15 -42 0 -8 4 -22 9 -32 5 -9 15 -37 22 -62 7
-25 19 -52 26 -61 7 -8 13 -24 13 -33 0 -10 14 -34 30 -53 17 -18 30 -39 30
-45 0 -6 7 -19 15 -28 9 -10 18 -27 20 -39 2 -12 22 -44 45 -70 22 -27 40 -53
40 -58 0 -6 16 -27 35 -47 19 -21 35 -41 35 -45 0 -7 104 -112 205 -205 43
-41 121 -96 134 -96 5 0 28 -16 52 -35 24 -19 50 -35 57 -35 7 0 30 -11 50
-25 20 -14 42 -25 49 -25 7 0 28 -11 48 -24 20 -14 57 -32 83 -41 26 -9 59
-23 74 -31 14 -8 39 -14 55 -14 16 0 33 -4 39 -9 5 -5 27 -11 49 -14 110 -16
242 -40 262 -49 13 -6 37 -7 60 -3 21 5 43 7 48 5 6 -1 69 -4 140 -6 72 -2
153 -5 180 -7 28 -2 73 1 100 6 28 5 91 11 140 14 50 3 95 8 100 13 6 4 32 11
59 15 27 4 65 15 85 26 20 10 45 19 57 19 11 0 43 11 70 25 27 14 56 25 64 25
22 1 96 36 148 71 26 17 52 32 59 33 7 1 23 11 35 23 13 11 48 36 78 56 30 19
74 53 98 76 23 23 49 41 57 41 8 0 15 4 15 10 0 5 47 58 105 117 58 59 105
112 105 118 0 7 11 22 25 35 14 13 25 29 25 35 0 7 16 33 35 58 19 25 35 52
35 60 0 8 9 22 20 32 11 10 20 25 20 34 0 9 7 25 15 35 8 11 15 27 15 37 0 9
10 29 21 44 12 15 23 38 25 52 1 13 9 32 17 41 13 16 22 45 31 112 2 14 9 38
15 53 6 16 8 33 5 38 -3 6 0 16 6 24 6 8 9 19 5 24 -3 6 1 21 9 33 9 15 14 42
12 76 -2 29 2 59 8 68 13 17 13 325 1 345 -6 9 -21 105 -29 186 -1 12 -8 29
-15 37 -7 8 -10 24 -7 34 4 11 0 24 -9 32 -8 7 -15 29 -15 50 0 22 -7 43 -16
51 -16 13 -34 51 -38 79 -1 8 -8 28 -14 43 -7 16 -12 34 -12 41 0 8 -7 19 -15
26 -8 7 -14 18 -13 24 2 14 -27 64 -79 134 -23 31 -43 65 -43 74 0 10 -8 25
-18 35 -10 10 -42 47 -72 83 -30 36 -71 81 -92 100 -83 77 -147 133 -166 143
-31 18 -99 68 -149 110 -24 20 -49 37 -56 37 -6 0 -23 12 -38 26 -16 16 -50
31 -90 40 -35 8 -73 23 -84 33 -21 19 -44 29 -92 37 -16 3 -52 16 -82 30 -30
14 -71 24 -90 23 -20 -1 -48 3 -62 9 -15 6 -53 12 -85 13 -33 2 -63 6 -69 10
-19 12 -83 17 -93 7 -7 -7 -16 -7 -29 0 -10 6 -24 8 -30 4 -14 -9 -222 -7
-248 2 -11 4 -23 4 -27 1z m-111 -654 c21 -11 39 -73 28 -92 -4 -5 -1 -17 6
-25 10 -12 9 -20 -1 -40 -20 -37 -3 -46 87 -48 82 -3 119 7 106 27 -11 19 -14
105 -3 112 6 3 10 17 10 30 0 30 11 36 68 41 26 1 56 6 68 9 13 4 25 1 33 -9
8 -9 19 -16 26 -16 25 0 34 -27 39 -110 7 -104 17 -116 115 -136 58 -12 85
-24 134 -62 34 -25 67 -53 74 -62 6 -8 25 -31 43 -50 53 -59 73 -107 74 -182
0 -41 -5 -73 -12 -80 -7 -7 -12 -22 -12 -33 0 -12 -9 -30 -20 -40 -11 -10 -19
-23 -17 -29 5 -16 -100 -138 -136 -158 -17 -10 -35 -24 -39 -32 -5 -9 -15 -13
-22 -10 -21 8 -98 -15 -94 -28 2 -6 25 -16 50 -23 25 -6 58 -19 72 -28 14 -9
47 -29 73 -43 54 -30 123 -92 123 -111 0 -7 8 -17 19 -22 40 -22 58 -295 22
-344 -9 -12 -24 -38 -35 -57 -10 -19 -28 -45 -40 -56 -11 -12 -44 -47 -73 -77
-34 -37 -61 -57 -80 -59 -15 -2 -38 -9 -50 -16 -12 -7 -29 -9 -37 -6 -9 4 -22
2 -29 -4 -6 -5 -31 -15 -55 -22 -48 -12 -61 -33 -43 -63 9 -14 10 -22 2 -30
-6 -6 -11 -24 -11 -39 0 -38 -38 -75 -86 -84 -22 -3 -45 -11 -52 -17 -9 -7
-16 -7 -24 1 -7 7 -20 12 -30 12 -20 0 -47 36 -48 65 -1 62 -6 105 -12 111 -4
3 -20 3 -35 -1 -15 -5 -36 -7 -46 -6 -10 1 -24 -3 -32 -9 -7 -6 -25 -8 -39 -4
-26 6 -26 5 -27 -47 -1 -72 -26 -115 -65 -111 -16 1 -39 -3 -50 -9 -16 -8 -27
-8 -42 0 -11 6 -34 11 -50 11 -44 0 -67 39 -54 91 13 53 5 82 -21 75 -11 -3
-30 0 -41 6 -12 7 -57 13 -101 15 -97 4 -224 30 -247 51 -41 35 -8 182 40 182
30 0 81 30 99 57 17 25 20 83 28 533 6 309 11 435 18 447 4 5 2 25 -3 44 -7
24 -6 38 4 54 8 12 12 33 9 47 -3 14 0 29 7 33 20 13 -20 45 -56 45 -24 0 -41
9 -64 33 -29 30 -31 35 -25 87 10 86 53 107 215 105 118 -2 158 11 140 45 -7
13 -7 21 1 26 7 4 9 25 4 59 -5 47 -4 53 18 68 13 8 34 17 48 20 37 8 134 0
156 -12z"/>
<path d="M1880 2593 c-60 -9 -110 -35 -111 -56 -1 -12 -3 -44 -6 -72 -7 -75
-4 -248 5 -256 13 -14 127 -26 199 -21 69 4 75 6 110 43 21 21 43 39 49 39 34
0 50 79 33 158 -10 44 -20 60 -54 88 -23 19 -47 34 -52 34 -6 0 -16 6 -22 14
-6 7 -30 16 -54 19 -24 3 -49 8 -57 10 -8 2 -26 2 -40 0z"/>
<path d="M1772 1866 c-11 -12 -24 -43 -30 -71 -10 -51 -8 -316 2 -333 3 -5 20
-16 38 -24 49 -22 206 -11 238 17 8 8 27 18 43 24 15 6 27 17 27 25 0 7 11 21
24 29 20 14 25 27 31 91 7 79 -2 105 -49 150 -72 67 -77 70 -133 77 -32 4 -84
14 -115 22 -55 14 -58 13 -76 -7z"/>
</g>
</svg>
