<!-- Copyright© AndGo, Inc. All Rights Reserved. -->
<svg id="a" width="220px" height="51px" viewBox="0 0 2480 568" class="theme-icon" xmlns="http://www.w3.org/2000/svg">

    <style>
        .theme-icon path {
            fill: #2A2A2B;
        }
    </style>

    <path fill-rule="evenodd" clip-rule="evenodd"
        d="M219.115 1.65394C219.115 0.870909 219.665 0.553525 220.343 0.94504L361.821 82.6275C362.5 83.019 363.049 83.9711 363.049 84.7541V567.021C363.049 567.804 362.5 568.121 361.821 567.73L220.343 486.047C219.665 485.656 219.115 484.704 219.115 483.921V418.871C219.115 418.088 219.665 417.771 220.343 418.162L248.731 434.552C249.409 434.943 249.958 435.895 249.958 436.678V456.097C249.958 456.88 250.508 457.832 251.186 458.223L330.978 504.291C331.657 504.683 332.206 504.365 332.206 503.582V112.578C332.206 111.795 331.657 110.843 330.978 110.451L251.186 64.3833C250.508 63.9918 249.958 64.3092 249.958 65.0922V149.61C249.958 150.393 249.409 150.711 248.731 150.319L220.343 133.93C219.665 133.538 219.115 132.586 219.115 131.803V1.65394ZM43.7531 284.291C43.7531 357.459 102.684 416.862 175.672 417.626C176.455 417.634 177.096 418.268 177.096 419.051V459.969C177.096 460.752 176.454 461.387 175.671 461.381C78.5197 460.615 0 381.623 0 284.291C0 186.959 78.5197 107.966 175.671 107.2C176.454 107.194 177.096 107.83 177.096 108.613V149.53C177.096 150.313 176.455 150.947 175.672 150.955C102.684 151.719 43.7531 211.123 43.7531 284.291ZM237.276 283.842C243.984 288.825 248.201 295.32 249.414 303.624C249.568 304.631 249.688 305.649 249.808 306.67L249.809 306.675C249.876 307.246 249.943 307.819 250.017 308.391V313.448C249.956 313.649 249.913 313.855 249.886 314.063C249.47 318.749 248.115 323.305 245.901 327.464C241.049 336.774 233.496 343.282 224.092 347.777C215.994 351.634 207.385 353.449 198.473 353.925C197.369 353.983 196.264 353.964 195.13 353.945C194.552 353.935 193.966 353.925 193.369 353.925L193.337 383.946L176.22 383.927L176.252 354.132L159.422 354.113L159.389 383.923L142.298 383.904L142.334 354.025L104.18 353.98C104.171 353.899 104.171 353.818 104.18 353.737C105.81 346.722 109.186 332.046 109.186 332.046H118.528C121.097 332.048 123.56 331.037 125.378 329.237C127.195 327.436 128.218 324.993 128.22 322.445L128.312 243.873C128.315 242.611 128.068 241.36 127.584 240.193C127.1 239.025 126.389 237.963 125.492 237.068C124.595 236.174 123.529 235.463 122.355 234.977C121.18 234.491 119.921 234.239 118.649 234.236H104.301L104.323 214.309L142.572 214.36C142.572 214.36 142.608 184.776 142.608 184.453L159.683 184.472L159.667 197.973C159.657 205.84 159.647 214.244 159.647 214.351L176.435 214.37V184.488L193.565 184.508C193.578 184.851 193.532 214.432 193.532 214.432H194.367C199.098 214.454 203.812 214.997 208.422 216.05C215.427 217.684 221.783 220.57 227.167 225.369C234.217 231.622 238.202 239.543 239.673 248.773C240.429 253.423 239.966 257.902 237.746 262.134C235.616 266.199 232.707 269.632 229.329 272.694C228.387 273.557 227.406 274.367 226.413 275.187L226.41 275.19C225.945 275.574 225.478 275.959 225.011 276.354C225.14 276.425 225.266 276.497 225.392 276.569L225.396 276.571C225.52 276.643 225.644 276.714 225.771 276.784C229.753 278.913 233.656 281.143 237.276 283.842ZM160.036 234.357H160.036C159.911 234.364 159.78 234.372 159.637 234.372L159.595 272.195C159.805 272.221 160.016 272.236 160.227 272.237L182.233 272.263C185.537 272.308 188.82 271.751 191.921 270.619C198.907 267.975 203.697 263.387 204.64 255.714C205.471 248.915 203.26 243.22 197.645 239.064C193.151 235.735 187.979 234.434 182.458 234.382C176.735 234.332 171.002 234.336 165.273 234.34C163.637 234.342 162.002 234.343 160.368 234.343C160.259 234.343 160.15 234.35 160.036 234.357ZM198.835 330.807C203.175 329.635 207.085 327.726 210.125 324.335C213.425 320.688 214.729 316.309 214.785 311.478C214.922 302.944 210.816 296.437 203.045 293.032C198.46 291.016 193.634 290.282 188.677 290.262C179.22 290.217 169.733 290.217 160.276 290.217C160.162 290.217 160.049 290.227 159.934 290.237C159.816 290.248 159.696 290.259 159.572 290.259L159.523 332.046C159.826 332.075 160.084 332.075 160.345 332.075C165.161 332.089 169.975 332.095 174.788 332.1L174.857 332.1H174.857C179.111 332.105 183.364 332.11 187.62 332.121C191.416 332.127 195.153 331.803 198.835 330.807ZM1353.97 318.259L1321.72 315.007L1321.46 316.31L1321.46 316.312L1321.46 316.313L1321.46 316.315C1319.34 326.884 1316.85 339.353 1316.85 351.322C1316.85 378.693 1341.51 394.412 1387.04 394.412C1408.72 394.412 1427.14 392.515 1442.32 390.618L1443.68 355.929C1424.16 359.452 1405.46 361.62 1387.31 361.62C1358.31 361.62 1350.18 352.677 1350.18 340.753C1350.18 334.791 1351.81 325.847 1353.97 318.259ZM1323.35 168.122L1281.89 164.87C1282.7 171.103 1282.16 182.214 1281.07 192.242C1280.53 196.578 1279.72 201.727 1278.63 207.689C1270.23 208.231 1262.1 208.502 1254.24 208.502C1243.13 208.502 1233.92 207.96 1220.1 206.334L1220.91 240.21C1230.39 240.752 1240.69 241.294 1253.7 241.294C1259.14 241.294 1264.83 241.046 1270.77 240.787L1271.59 240.752C1270.36 246.684 1268.82 252.462 1267.33 258.085L1267.33 258.088L1267.33 258.091L1267.33 258.098C1266.84 259.92 1266.36 261.726 1265.9 263.516C1255.87 301.457 1235.27 358.368 1219.01 385.469L1256.68 398.206C1271.86 365.956 1290.02 310.671 1299.77 272.73C1302.75 261.619 1305.46 249.695 1307.9 238.042C1326.06 235.874 1344.49 232.893 1360.75 229.098V195.223C1345.84 198.746 1330.67 201.727 1315.49 203.895C1315.72 202.835 1315.94 201.796 1316.17 200.783C1316.74 198.174 1317.27 195.745 1317.66 193.597C1318.74 187.635 1321.18 175.439 1323.35 168.122ZM1339.34 249.966V281.673C1356.41 279.776 1373.21 278.963 1391.64 278.963C1408.17 278.963 1424.71 280.589 1438.26 282.216L1439.07 249.695C1423.08 248.069 1406.82 247.256 1391.37 247.256C1374.03 247.256 1354.52 248.611 1339.34 249.966ZM901.936 214.193L900.581 179.233C907.898 180.046 917.112 180.588 923.075 180.588C938.522 180.588 967.248 179.233 979.986 178.149C986.761 177.878 993.807 176.252 998.414 174.355L1020.09 191.158C1016.3 195.223 1013.05 198.746 1010.88 202.54C1003.83 214.193 993.536 237.771 983.78 260.806C1004.92 264.058 1024.97 270.562 1042.59 278.15C1042.86 274.915 1043.13 271.947 1043.4 268.981L1043.4 268.979L1043.4 268.936C1044.21 258.367 1044.21 247.527 1043.4 239.397L1078.9 243.462C1077.82 261.619 1076.46 278.421 1073.75 293.598C1085.14 300.102 1094.89 306.335 1102.75 311.755L1087.03 349.425C1079.99 342.921 1072.13 336.688 1063.73 330.454C1051.8 361.078 1031.21 384.927 994.891 403.897L966.164 380.32C1007.09 362.704 1026.06 336.959 1035 312.297C1015.76 301.728 994.078 293.598 970.771 290.346L969.94 292.311L969.939 292.312L969.938 292.314C960.371 314.908 949.364 340.904 940.148 355.387C929.308 371.647 916.299 379.236 897.871 379.236C874.023 379.236 856.136 362.704 856.136 335.333C856.136 293.327 894.348 261.348 948.82 258.909C956.408 241.023 964.267 222.594 970.5 209.857C966.645 210.05 961.214 210.277 955.254 210.526L955.252 210.526C944.453 210.977 931.92 211.501 923.888 212.025C918.467 212.296 908.982 213.109 901.936 214.193ZM935.27 290.075C904.917 294.682 887.844 313.11 887.844 330.184C887.844 339.127 892.993 343.734 899.226 343.734C904.646 343.734 908.44 341.024 913.318 334.249C919.753 325.092 926.413 310.06 933.299 294.518L933.3 294.517L933.3 294.516C933.954 293.039 934.611 291.557 935.27 290.075ZM520.36 273.814L504.913 235.874C514.695 234.287 527.83 230.638 537.524 227.944L538.247 227.743C540.685 226.983 543.594 226.045 546.893 224.982L546.895 224.981C571.824 216.944 619.024 201.727 653.966 201.727C703.018 201.727 741.501 229.911 741.501 280.047C741.501 341.566 682.964 380.862 587.57 385.74L571.851 349.696C645.294 347.799 702.747 326.66 702.747 279.505C702.747 254.031 685.132 234.519 652.611 234.519C612.773 234.519 548.545 261.619 520.36 273.814ZM1569.96 235.061L1566.44 197.933C1577.28 197.662 1587.85 197.12 1593.27 196.578C1605.43 195.552 1624.08 193.894 1646.48 191.901L1646.48 191.901C1665.53 190.207 1687.29 188.272 1710.07 186.28C1737.99 184.112 1767.8 182.214 1786.77 181.672L1787.04 216.361C1785.48 216.39 1783.81 216.416 1782.07 216.443C1767.53 216.669 1747.56 216.98 1734.74 219.884C1701.94 228.556 1677.55 263.787 1677.55 296.037C1677.55 340.482 1719.29 356.742 1765.09 359.181L1752.35 396.309C1695.71 392.515 1642.05 361.891 1642.05 303.354C1642.05 264.329 1664 233.435 1682.16 219.613C1656.69 222.323 1601.4 228.285 1569.96 235.061ZM1988.94 168.393L1955.06 182.214C1967.26 210.941 1980.27 239.939 1992.73 262.974C1966.72 282.216 1947.75 304.709 1947.75 334.52C1947.75 381.133 1988.67 396.038 2042.6 396.038C2077.83 396.038 2106.56 393.328 2129.59 389.263L2130.13 350.238C2106.01 356.2 2069.43 360.265 2041.51 360.265C2003.84 360.265 1985.15 349.967 1985.15 330.454C1985.15 311.484 2000.32 296.037 2022.81 281.132C2042.83 268.152 2069.1 255.351 2087.27 246.498L2087.29 246.49C2091.5 244.44 2095.27 242.602 2098.43 241.023C2108.45 235.874 2117.12 231.266 2125.25 226.388L2106.56 194.952C2099.51 200.914 2091.65 205.521 2081.35 211.483C2076.2 214.442 2069.28 218.109 2061.39 222.288C2049.77 228.445 2036.05 235.713 2022.81 243.462C2011.97 222.594 1999.24 196.578 1988.94 168.393ZM2310.89 223.136V187.364C2330.95 189.532 2356.15 190.616 2384.61 190.616C2411.44 190.616 2442.33 188.99 2463.2 186.822V222.865C2444.23 224.491 2410.62 226.117 2384.88 226.117C2356.42 226.117 2332.84 225.033 2310.89 223.136ZM2298.16 299.018L2333.66 302.27C2330.95 312.026 2329.05 320.427 2329.05 329.641C2329.05 346.986 2345.58 359.452 2384.61 359.452C2421.19 359.452 2455.88 355.387 2479.73 348.612L2480 386.824C2456.42 392.515 2423.9 396.038 2385.96 396.038C2323.9 396.038 2292.74 375.17 2292.74 338.043C2292.74 323.723 2295.44 311.427 2297.56 301.771C2297.69 301.146 2297.83 300.532 2297.96 299.93L2298.16 299.018Z" />
</svg>